# xmcd
#
# Track frame offsets: 
#        182
#        15767
#        28790
#        45510
#        66210
#        84075
#        102135
#        118897
#        137415
#        149307
#        168692
#        186370
#
# Disc length: 2710 seconds
#
# Revision: 15
# Processed by: cddbd v1.5.2PL0 Copyright (c) Steve Scherf et al.
# Submitted via: ExactAudioCopyFreeDBPlugin 1.0
#
DISCID=980a940c
DTITLE=Little Texas - Greatest Hits
DYEAR=2005
DGENRE=Country
TTITLE0=God Blessed Texas
TTITLE1=Some Guys Have All The Love
TTITLE2=You And Forever And Me
TTITLE3=Amy's Back In Austin
TTITLE4=What Might Have Been
TTITLE5=First Time For Everything
TTITLE6=Kick A Little
TTITLE7=My Love
TTITLE8=Life Goes On
TTITLE9=Peaceful Easy Feeling
TTITLE10=I'd Rather Miss You
TTITLE11=Country Crazy
EXTD=YEAR: 1993
EXTT0=
EXTT1=
EXTT2=
EXTT3=
EXTT4=
EXTT5=
EXTT6=
EXTT7=
EXTT8=
EXTT9=
EXTT10=
EXTT11=
PLAYORDER=
